<svg xmlns="http://www.w3.org/2000/svg" width="86" height="100" viewBox="0 0 86 100">
  <metadata><?xpacket begin="﻿" id="W5M0MpCehiHzreSzNTczkc9d"?>
<x:xmpmeta xmlns:x="adobe:ns:meta/" x:xmptk="Adobe XMP Core 5.6-c138 79.159824, 2016/09/14-01:09:01        ">
   <rdf:RDF xmlns:rdf="http://www.w3.org/1999/02/22-rdf-syntax-ns#">
      <rdf:Description rdf:about=""/>
   </rdf:RDF>
</x:xmpmeta>
                                                                                                    
                                                                                                    
                                                                                                    
                                                                                                    
                                                                                                    
                                                                                                    
                                                                                                    
                                                                                                    
                                                                                                    
                                                                                                    
                                                                                                    
                                                                                                    
                                                                                                    
                                                                                                    
                                                                                                    
                                                                                                    
                                                                                                    
                                                                                                    
                                                                                                    
                                                                                                    
                           
<?xpacket end="w"?></metadata>
<defs>
    <style>
      .cls-1 {
        fill: #48bd15;
        fill-rule: evenodd;
      }
    </style>
  </defs>
  <path class="cls-1" d="M25.265,50.354A25.177,25.177,0,1,0,0,25.167,25.22,25.22,0,0,0,25.265,50.354ZM16.439,35.125c0.23-.833.46-1.646,0.711-2.479,0.293-.958.565-1.062,1.443-0.6a14.165,14.165,0,0,0,4.768,1.417,5.9,5.9,0,0,0,3.116-.417,2.421,2.421,0,0,0,.586-4.25,7.643,7.643,0,0,0-1.778-1.042,42.285,42.285,0,0,1-4.873-2.167c-2.489-1.479-4.078-3.542-3.89-6.562,0.209-3.417,2.154-5.563,5.291-6.688,1.3-.479,1.3-0.458,1.318-1.812V9.146c0.021-1.021.209-1.188,1.213-1.229h0.941c2.175,0,2.175,0,2.175,2.167,0,1.521,0,1.542,1.527,1.771a13.612,13.612,0,0,1,3.367,1A1,1,0,0,1,33,14.167c-0.272.938-.523,1.875-0.837,2.792-0.293.875-.565,1-1.4,0.6A10.788,10.788,0,0,0,25.411,16.5a3.692,3.692,0,0,0-1.422.292,2.012,2.012,0,0,0-.5,3.583,8.72,8.72,0,0,0,2.322,1.292,42.8,42.8,0,0,1,4.246,1.917,7.555,7.555,0,0,1,2.447,11.5,8.136,8.136,0,0,1-4.225,2.688A1.176,1.176,0,0,0,27.251,39.1c0.042,0.75,0,1.479,0,2.229a0.924,0.924,0,0,1-1,1.042c-0.795.021-1.61,0.021-2.405,0a0.974,0.974,0,0,1-1.046-1.1c0-.542,0-1.083-0.021-1.625-0.021-1.187-.042-1.25-1.213-1.437a14.659,14.659,0,0,1-4.287-1.229C16.25,36.5,16.146,36.229,16.439,35.125Zm65.5,17.333H78.994A32.911,32.911,0,0,0,68.16,37.167a2.8,2.8,0,0,0-.084-0.583,11.8,11.8,0,0,1,1.778-9.562,2.392,2.392,0,0,0-2.322-3.646,17.761,17.761,0,0,0-9.725,4.063,9.407,9.407,0,0,0-2.97,4.875A30.458,30.458,0,0,1,6.776,49.25a29.331,29.331,0,0,0-1.9,19.333h0a0.362,0.362,0,0,0,.021.1A30,30,0,0,0,7.4,75.333,34.864,34.864,0,0,0,13.824,85,18.4,18.4,0,0,1,18.8,96.854v1.125h0A2.186,2.186,0,0,0,20.977,100H34.195a2.169,2.169,0,0,0,2.175-2.167v-3.25a45.64,45.64,0,0,0,5.877.4,42.337,42.337,0,0,0,4.622-.25v3.1A2.169,2.169,0,0,0,49.044,100H62.3a2.169,2.169,0,0,0,2.175-2.167v-3.25a12.972,12.972,0,0,1,4.5-9.083l0.439-.375c0.042-.042.084-0.062,0.126-0.1h0A32.572,32.572,0,0,0,79.2,70.313h2.782a4.009,4.009,0,0,0,4.016-4V56.458A4.072,4.072,0,0,0,81.943,52.458ZM65.4,53.167A3.271,3.271,0,1,1,68.683,49.9,3.27,3.27,0,0,1,65.4,53.167Z"/>
</svg>
