<svg xmlns="http://www.w3.org/2000/svg" width="117.844" height="100" viewBox="0 0 117.844 100">
  <metadata><?xpacket begin="﻿" id="W5M0MpCehiHzreSzNTczkc9d"?>
<x:xmpmeta xmlns:x="adobe:ns:meta/" x:xmptk="Adobe XMP Core 5.6-c138 79.159824, 2016/09/14-01:09:01        ">
   <rdf:RDF xmlns:rdf="http://www.w3.org/1999/02/22-rdf-syntax-ns#">
      <rdf:Description rdf:about=""/>
   </rdf:RDF>
</x:xmpmeta>
                                                                                                    
                                                                                                    
                                                                                                    
                                                                                                    
                                                                                                    
                                                                                                    
                                                                                                    
                                                                                                    
                                                                                                    
                                                                                                    
                                                                                                    
                                                                                                    
                                                                                                    
                                                                                                    
                                                                                                    
                                                                                                    
                                                                                                    
                                                                                                    
                                                                                                    
                                                                                                    
                           
<?xpacket end="w"?></metadata>
<defs>
    <style>
      .cls-1 {
        fill: #48bd15;
        fill-rule: evenodd;
      }
    </style>
  </defs>
  <path class="cls-1" d="M70.2,76.813L70,76.522a6.271,6.271,0,0,1,.535-7.592c0.267-.315.559-0.655,0.924-1.043a7.034,7.034,0,0,1,10.087-.9c2.43,1.795,4.861,3.687,7.17,5.481,0.462,0.34.9,0.7,1.361,1.043,0.34-.388.681-0.8,1.045-1.189q3.609-4.148,7.17-8.3A50.023,50.023,0,1,0,80.187,90.08c-2.674-3.469-5.4-6.961-8.045-10.429C71.412,78.7,70.78,77.735,70.2,76.813Zm-5.566-7.082a16.108,16.108,0,0,1-8.361,5.336,2.324,2.324,0,0,0-2.017,2.668c0.073,1.48,0,2.959,0,4.438a1.841,1.841,0,0,1-1.969,2.062c-1.58.048-3.184,0.048-4.788,0a1.937,1.937,0,0,1-2.066-2.183c-0.024-1.067-.024-2.159-0.024-3.226-0.024-2.377-.1-2.474-2.406-2.838a30.507,30.507,0,0,1-8.507-2.425c-2.115-1.019-2.334-1.552-1.726-3.759,0.462-1.649.9-3.3,1.41-4.924,0.583-1.892,1.094-2.134,2.844-1.213a27.365,27.365,0,0,0,9.431,2.814,11.782,11.782,0,0,0,6.2-.8,4.8,4.8,0,0,0,1.142-8.416A15.081,15.081,0,0,0,50.266,55.2c-3.233-1.407-6.587-2.5-9.65-4.317-4.958-2.959-8.094-7.009-7.729-13.025,0.413-6.791,4.254-11.036,10.5-13.291,2.577-.946,2.577-0.9,2.6-3.59V18.263c0.049-2.037.389-2.377,2.406-2.425,0.632-.024,1.264,0,1.872,0,4.3,0,4.3,0,4.326,4.293,0.024,3.032,0,3.056,3.038,3.517a26.542,26.542,0,0,1,6.684,1.989,1.939,1.939,0,0,1,1.264,2.6c-0.535,1.843-1.045,3.711-1.629,5.554-0.559,1.746-1.118,1.989-2.8,1.188a21.046,21.046,0,0,0-10.6-2.086,8.019,8.019,0,0,0-2.819.582c-3.208,1.407-3.719,4.924-1,7.106a19.391,19.391,0,0,0,4.594,2.571,81.278,81.278,0,0,1,8.385,3.784C68.35,51.637,70.683,62.382,64.631,69.731ZM116.84,55.275c-1.167-.946-1.969-1.431-2.7-1.431-0.826,0-1.556.631-2.674,1.916q-8.459,9.786-16.916,19.549c-1.264,1.455-2.528,2.91-3.84,4.414-0.656-.509-1.264-0.97-1.871-1.455C85.51,75.7,82.228,73.1,78.874,70.6a3.47,3.47,0,0,0-1.969-.849,3.29,3.29,0,0,0-2.236,1.285,9.671,9.671,0,0,0-.656.752,1.8,1.8,0,0,0-.194,2.3c0.608,0.946,1.215,1.916,1.9,2.814Q82.386,85.569,89.083,94.2a2.331,2.331,0,0,0,1.8,1.067,2.452,2.452,0,0,0,1.944-1.261q12.287-17.536,24.524-35.047C118.59,57.191,118.468,56.609,116.84,55.275Z" transform="translate(-0.156)"/>
</svg>
