<svg xmlns="http://www.w3.org/2000/svg" width="105.906" height="100" viewBox="0 0 105.906 100">
  <metadata><?xpacket begin="﻿" id="W5M0MpCehiHzreSzNTczkc9d"?>
<x:xmpmeta xmlns:x="adobe:ns:meta/" x:xmptk="Adobe XMP Core 5.6-c138 79.159824, 2016/09/14-01:09:01        ">
   <rdf:RDF xmlns:rdf="http://www.w3.org/1999/02/22-rdf-syntax-ns#">
      <rdf:Description rdf:about=""/>
   </rdf:RDF>
</x:xmpmeta>
                                                                                                    
                                                                                                    
                                                                                                    
                                                                                                    
                                                                                                    
                                                                                                    
                                                                                                    
                                                                                                    
                                                                                                    
                                                                                                    
                                                                                                    
                                                                                                    
                                                                                                    
                                                                                                    
                                                                                                    
                                                                                                    
                                                                                                    
                                                                                                    
                                                                                                    
                                                                                                    
                           
<?xpacket end="w"?></metadata>
<defs>
    <style>
      .cls-1 {
        fill: #48bd15;
        fill-rule: evenodd;
      }
    </style>
  </defs>
  <path id="Forma_1" data-name="Forma 1" class="cls-1" d="M107.445,60.743l-18.909,35.6c-0.926,1.771-3.549,3.643-5.574,3.643L7.131,100a6.054,6.054,0,0,1-4.27-1.759,5.993,5.993,0,0,1-1.768-4.248L1.105,35.417a6.021,6.021,0,0,1,6.03-6l5.544-.005v5.117H8.97a2.747,2.747,0,0,0-1.937.8,2.72,2.72,0,0,0-.8,1.927L6.237,92.161a2.732,2.732,0,0,0,2.739,2.725h3.8L30.7,58.821c1.013-2.015,2.926-3.642,4.948-3.642h43.89l0.014-14.514a5.6,5.6,0,0,1,5.128,5.547v8.966h20.131C107.183,55.2,109.183,57.541,107.445,60.743ZM16.176,76.731c-0.164-17.95,0-71.805,0-71.805A4.943,4.943,0,0,1,21.126,0H60.769a2.272,2.272,0,0,1,1.669.729L75.254,14.581a2.255,2.255,0,0,1,.6,1.529V51.994H71.7V19.209a1.031,1.031,0,0,0-1.034-1.028H60.853a2.076,2.076,0,0,1-2.081-2.067V5.165a1.031,1.031,0,0,0-1.034-1.028H21.129a0.792,0.792,0,0,0-.793.789V72.217l-3.182,6.4S16.192,78.549,16.176,76.731ZM62.934,14.046H69.11L62.934,7.369v6.678Zm2.252,8.347H26.872a2.545,2.545,0,1,0,0,5.09H65.186A2.545,2.545,0,1,0,65.186,22.393Zm2.56,17.366a2.554,2.554,0,0,0-2.56-2.543H26.872a2.543,2.543,0,1,0,0,5.086H65.186A2.554,2.554,0,0,0,67.746,39.759ZM24.314,54.68a2.551,2.551,0,0,0,2.557,2.542H27.79a7.662,7.662,0,0,1,5.625-5.086H26.871A2.554,2.554,0,0,0,24.314,54.68Z" transform="translate(-1.094)"/>
</svg>
